<?xml version="1.0" encoding="UTF-8"?>
<svg xmlns="http://www.w3.org/2000/svg" style="display:none">

<symbol id="quote" viewBox="0 0 16 16"><path d="M12 12a1 1 0 0 0 1-1V8.558a1 1 0 0 0-1-1h-1.388q0-.527.062-1.054.093-.558.31-.992t.559-.683q.34-.279.868-.279V3q-.868 0-1.52.372a3.3 3.3 0 0 0-1.085.992 4.9 4.9 0 0 0-.62 1.458A7.7 7.7 0 0 0 9 7.558V11a1 1 0 0 0 1 1zm-6 0a1 1 0 0 0 1-1V8.558a1 1 0 0 0-1-1H4.612q0-.527.062-1.054.094-.558.31-.992.217-.434.559-.683.34-.279.868-.279V3q-.868 0-1.52.372a3.3 3.3 0 0 0-1.085.992 4.9 4.9 0 0 0-.62 1.458A7.7 7.7 0 0 0 3 7.558V11a1 1 0 0 0 1 1z"/></symbol>


<symbol id="phone" viewBox="0 0 24 24" xmlns="http://www.w3.org/2000/svg" fill="currentColor"><path d="M13.26 1.88a.75.75 0 0 1 .862-.62l.149.03.353.091c.297.086.711.229 1.209.457.996.457 2.322 1.256 3.698 2.632s2.175 2.702 2.632 3.698c.228.498.37.912.457 1.209l.091.353.021.102.006.031c.066.409-.209.811-.618.878a.75.75 0 0 1-.86-.617l-.014-.068-.068-.259c-.068-.232-.185-.578-.38-1.003-.39-.85-1.091-2.025-2.329-3.262s-2.412-1.939-3.262-2.329c-.426-.195-.771-.313-1.003-.38l-.318-.08a.76.76 0 0 1-.627-.861z"/><path d="M13.486 5.33a.75.75 0 0 1 .927-.515l-.206.721.206-.721h.002.002l.003.001.008.002.02.006.056.019.177.07a5.15 5.15 0 0 1 .589.304c.489.29 1.158.771 1.943 1.556s1.266 1.453 1.556 1.943c.145.245.241.444.304.589l.07.177.019.056.006.02.002.008.001.003v.002s0 .001-.721.207l.721-.206a.75.75 0 0 1-1.439.422l-.004-.011-.035-.088a3.67 3.67 0 0 0-.216-.416c-.223-.377-.626-.946-1.326-1.646s-1.269-1.103-1.646-1.326c-.189-.112-.33-.179-.416-.216l-.088-.035-.011-.004a.75.75 0 0 1-.505-.924zm-8.479-.923c1.68-1.68 4.515-1.552 5.685.544l.649 1.163c.764 1.369.438 3.096-.68 4.228a.63.63 0 0 0-.104.336c-.012.256.079.849.997 1.768s1.511 1.009 1.767.997a.63.63 0 0 0 .336-.104c1.132-1.118 2.859-1.444 4.228-.68l1.163.649c2.096 1.17 2.224 4.005.544 5.685-.899.899-2.094 1.697-3.498 1.75-2.081.079-5.536-.458-8.958-3.88s-3.959-6.877-3.88-8.958c.053-1.404.852-2.599 1.75-3.498zm4.375 1.275c-.599-1.073-2.209-1.32-3.315-.214-.775.775-1.279 1.631-1.312 2.494-.066 1.735.363 4.761 3.442 7.84s6.105 3.508 7.84 3.442c.863-.033 1.719-.537 2.494-1.312 1.106-1.106.859-2.715-.214-3.314l-1.163-.649c-.723-.404-1.74-.266-2.453.447-.07.07-.516.486-1.308.525-.81.039-1.791-.325-2.901-1.434S9.02 11.415 9.06 10.605c.039-.792.455-1.237.525-1.307.713-.713.851-1.729.447-2.453l-.649-1.163z" fill-rule="evenodd"/></symbol>

<symbol id="phone2" viewBox="0 0 24 24" xmlns="http://www.w3.org/2000/svg"><path d="M15.556 14.548l-.456.479s-1.083 1.14-4.038-1.971S9.19 8.805 9.19 8.805l.287-.302c.707-.744.773-1.938.157-2.81L8.373 3.91c-.763-1.079-2.237-1.222-3.112-.301l-1.57 1.653c-.434.457-.724 1.048-.689 1.705.09 1.68.808 5.293 4.812 9.509 4.247 4.471 8.231 4.649 9.861 4.488.515-.051.964-.329 1.325-.709l1.421-1.496c.959-1.01.688-2.74-.538-3.446l-1.91-1.1c-.806-.464-1.787-.328-2.417.335zM13.26 1.88a.75.75 0 0 1 .862-.62l.149.03.353.091c.297.086.711.229 1.209.457.996.457 2.322 1.256 3.698 2.632s2.175 2.702 2.631 3.698c.228.498.371.912.457 1.209l.091.353.021.102.006.031c.066.409-.209.811-.618.878a.75.75 0 0 1-.86-.617l-.014-.068-.067-.259a7.43 7.43 0 0 0-.38-1.003c-.39-.85-1.091-2.024-2.329-3.262s-2.412-1.939-3.262-2.329c-.426-.195-.771-.313-1.003-.38l-.317-.08a.76.76 0 0 1-.627-.861z"/><path fill-rule="evenodd" d="M13.486 5.329a.75.75 0 0 1 .927-.515l-.206.721.206-.721h.002.002l.003.001.008.002.02.006.056.019.177.07a5.16 5.16 0 0 1 .589.304c.489.29 1.158.771 1.943 1.556s1.266 1.453 1.556 1.943c.145.245.241.444.304.589l.07.177.019.056.006.02.002.008.001.003v.002s0 .001-.721.207l.721-.206a.75.75 0 1 1-1.439.422l-.004-.011-.035-.088a3.67 3.67 0 0 0-.216-.416c-.223-.377-.626-.946-1.326-1.646s-1.269-1.103-1.646-1.326c-.189-.112-.33-.179-.416-.216l-.088-.035-.011-.004a.75.75 0 0 1-.505-.924z"/></symbol>

<symbol id="users" viewBox="0 0 16 16" xmlns="http://www.w3.org/2000/svg"><path d="M7 14s-1 0-1-1 1-4 5-4 5 3 5 4-1 1-1 1H7Zm4-6a3 3 0 1 0 0-6 3 3 0 0 0 0 6Zm-5.784 6A2.238 2.238 0 0 1 5 13c0-1.355.68-2.75 1.936-3.72A6.325 6.325 0 0 0 5 9c-4 0-5 3-5 4s1 1 1 1h4.216ZM4.5 8a2.5 2.5 0 1 0 0-5 2.5 2.5 0 0 0 0 5Z"/></symbol>

<symbol id="user" viewBox="0 0 16 16" xmlns="http://www.w3.org/2000/svg"><path d="M3 14s-1 0-1-1 1-4 6-4 6 3 6 4-1 1-1 1zm5-6a3 3 0 1 0 0-6 3 3 0 0 0 0 6"/></symbol>

<symbol id="heart-fill" viewBox="0 0 16 16" xmlns="http://www.w3.org/2000/svg"><path fill-rule="evenodd" d="M8 1.314C12.438-3.248 23.534 4.735 8 15-7.534 4.736 3.562-3.248 8 1.314"/></symbol>

<symbol id="cart-fill" viewBox="0 0 16 16" xmlns="http://www.w3.org/2000/svg"><path d="M0 1.5A.5.5 0 0 1 .5 1H2a.5.5 0 0 1 .485.379L2.89 3H14.5a.5.5 0 0 1 .491.592l-1.5 8A.5.5 0 0 1 13 12H4a.5.5 0 0 1-.491-.408L2.01 3.607 1.61 2H.5a.5.5 0 0 1-.5-.5M5 12a2 2 0 1 0 0 4 2 2 0 0 0 0-4m7 0a2 2 0 1 0 0 4 2 2 0 0 0 0-4m-7 1a1 1 0 1 1 0 2 1 1 0 0 1 0-2m7 0a1 1 0 1 1 0 2 1 1 0 0 1 0-2"/></symbol>

<symbol id="share" viewBox="0 0 512 512" xmlns="http://www.w3.org/2000/svg"><path d="M512,255.995L277.045,65.394v103.574c-17.255,0-36.408,0-57.542,0c-208.59,0-249.35,153.44-201.394,266.128 c9.586-103.098,142.053-100.701,237.358-100.701c7.247,0,14.446,0,21.578,0v112.211L512,255.995z"/></symbol>

<symbol id="caret-down-fill" viewBox="0 0 16 16" xmlns="http://www.w3.org/2000/svg"><path d="M7.247 11.14 2.451 5.658C1.885 5.013 2.345 4 3.204 4h9.592a1 1 0 0 1 .753 1.659l-4.796 5.48a1 1 0 0 1-1.506 0z"/></symbol>

<symbol id="portfolio" viewBox="0 0 449.259 449.259" xmlns="http://www.w3.org/2000/svg"><path d="M449.206 413.6l-29.689-286.717a30.24 30.24 0 0 0-30.152-27.191h-79.673v-37.97c0-20.453-16.64-37.093-37.093-37.093h-95.938c-20.453 0-37.093 16.64-37.093 37.093v37.969H59.894a30.24 30.24 0 0 0-30.152 27.191L.053 413.6A10 10 0 0 0 10 424.63h429.259c2.832 0 5.53-1.2 7.426-3.303a10 10 0 0 0 2.521-7.727zM159.568 61.722c0-9.425 7.668-17.093 17.093-17.093h95.938c9.425 0 17.093 7.668 17.093 17.093v37.969H159.568V61.722zM49.636 128.943a10.29 10.29 0 0 1 10.259-9.251h329.47a10.29 10.29 0 0 1 10.259 9.251l23.556 227.485c-22.652 6.193-39.62 25.012-43.457 48.202H69.537c-3.837-23.19-20.805-42.009-43.457-48.202l23.556-227.485zM23.978 376.731a40.21 40.21 0 0 1 25.147 27.898H21.089l2.889-27.898zm376.156 27.899a40.21 40.21 0 0 1 25.147-27.898l2.889 27.898h-28.036zm-287-14.173a10.02 10.02 0 0 0 2.459-.307l47.376-12.021a10.01 10.01 0 0 0 4.612-2.622l168.293-168.293c13.646-13.647 13.646-35.851 0-49.498a34.77 34.77 0 0 0-49.498 0L118.083 326.01c-1.273 1.273-2.179 2.867-2.622 4.612l-12.021 47.376a10 10 0 0 0 2.622 9.531c1.899 1.898 4.453 2.928 7.072 2.928zm17.387-37.867l10.48 10.479-14.042 3.563 3.562-14.042zm29.989 1.704l-21.213-21.213L285.67 186.708l21.213 21.213L160.51 354.294zm150.615-186.829c4.007 0 7.773 1.56 10.606 4.394a15.02 15.02 0 0 1 0 21.213l-.707.707-21.213-21.213.707-.707c2.835-2.834 6.601-4.394 10.607-4.394z"/></symbol>

<symbol id="support" viewBox="0 0 496 496" xmlns="http://www.w3.org/2000/svg"><path d="M456 208H344c-22.056 0-40 17.944-40 40v68.248l-48-10.656v-19.768c23.344-16.848 38.8-43.88 39.832-74.56C316.544 189.392 328 160.976 328 130.744V96c0-20.256-15.144-37.056-34.704-39.648C276.512 21.96 241.632 0 203.072 0h-13.464c-26.016 0-51.664 8.8-72.208 24.776C88.544 47.216 72 81.056 72 117.608V128v2.744V232c0 13.232 10.768 24 24 24h20.984A96.56 96.56 0 0 0 144 285.816v19.768L81.44 319.48C33.488 330.144 0 371.88 0 421.008V496h344 112c22.056 0 40-17.944 40-40V248c0-22.056-17.944-40-40-40zM304 332.64v25.144l-17.408-29.016L304 332.64zM96 240c-4.416 0-8-3.584-8-8v-42.296c4.504 7.704 9.896 14.928 16.168 21.552A95.34 95.34 0 0 0 109.6 240H96zm19.264-88H104v33.304c-10.376-16.144-16-34.912-16-54.56V128v-10.392c0-31.584 14.296-60.824 39.224-80.208A102.15 102.15 0 0 1 189.608 16h13.464a84.31 84.31 0 0 1 77.576 51.152l2.08 4.848H288c13.232 0 24 10.768 24 24v34.744c0 19.648-5.624 38.416-16 54.56V120h-17.536l-2.76 1.104C224.456 141.6 170.48 152 115.264 152zm20.888 104h33.32c3.312 9.288 12.112 16 22.528 16h16c13.232 0 24-10.768 24-24s-10.768-24-24-24h-16c-10.416 0-19.216 6.712-22.528 16h-42.744c-4.304-9.808-6.728-20.624-6.728-32v-40.024c55.016-.568 108.816-11.12 160-31.368V208c0 44.112-35.888 80-80 80-26.088 0-49.232-12.616-63.848-32zM184 248c0-4.416 3.584-8 8-8h16c4.416 0 8 3.584 8 8s-3.584 8-8 8h-16c-4.416 0-8-3.584-8-8zM96 480v-32H80v32H16v-58.992c0-41.56 28.336-76.888 68.904-85.896l28.496-6.336-20.384 33.968 40.872 24.52-23.728 55.36L160.008 480H96zm90.664 0l-56.832-42.624 24.272-56.64-39.128-23.48 19.88-33.144-.136-.08 11.568-2.568L189.528 480h-2.864zM160 310.936v-15.768c12.192 5.608 25.712 8.832 40 8.832s27.808-3.224 40-8.84v15.768L200 457.6l-40-146.664zM210.472 480l43.24-158.536 11.568 2.568-.144.08 19.88 33.144-39.128 23.48 24.272 56.64L213.336 480h-2.864zM240 480l49.832-37.376-23.728-55.36L304 364.528V456c0 9.04 3.128 17.296 8.208 24H240zm240-24c0 13.232-10.768 24-24 24H344c-13.232 0-24-10.768-24-24v-8h160v8zm0-24H320V264h160v168zM320 248c0-13.232 10.768-24 24-24h112c13.232 0 24 10.768 24 24H320zm56 208h48v16h-48z"/></symbol>

<symbol id="badge" viewBox="0 0 512 512" xmlns="http://www.w3.org/2000/svg"><path d="M357.949 96.453C327.531 76.978 292.279 66.684 256 66.684 151.61 66.684 66.683 151.61 66.683 256S151.61 445.317 256 445.317s189.317-84.927 189.317-189.318c0-42.675-13.862-82.963-40.087-116.507a10.33 10.33 0 0 0-14.495-1.776 10.33 10.33 0 0 0-1.776 14.495c23.358 29.878 35.704 65.768 35.704 103.788 0 93.002-75.662 168.664-168.664 168.664S87.335 349.001 87.335 255.999 162.997 87.335 255.999 87.335c32.324 0 63.727 9.167 90.814 26.51a10.33 10.33 0 0 0 14.264-3.128 10.33 10.33 0 0 0-3.128-14.264zM500.39 256c0-11.871 2.871-25.02 5.648-37.735 4.878-22.338 9.923-45.436 1.247-66.357-9.044-21.813-29.357-34.695-49.002-47.153-11.117-7.051-21.618-13.709-29.474-21.566s-14.515-18.356-21.564-29.473c-12.458-19.643-25.339-39.956-47.151-49.001-20.923-8.678-44.021-3.632-66.359 1.246C281.02 8.739 267.871 11.61 256 11.61s-25.02-2.871-37.735-5.648c-22.338-4.88-45.437-9.922-66.357-1.247-21.813 9.045-34.695 29.357-47.153 49.002-7.051 11.117-13.709 21.618-21.566 29.474s-18.356 14.515-29.473 21.564c-19.643 12.458-39.956 25.339-49.001 47.151-8.677 20.921-3.632 44.019 1.246 66.359 2.776 12.715 5.648 25.863 5.648 37.734s-2.871 25.02-5.648 37.735c-4.878 22.338-9.922 45.437-1.246 66.359 9.044 21.812 29.357 34.694 49.002 47.151l3.972 2.524a10.33 10.33 0 0 0 14.26-3.152 10.33 10.33 0 0 0-3.152-14.26l-4.02-2.554c-17.712-11.232-34.442-21.842-40.985-37.621-6.194-14.936-2.046-33.931 2.346-54.041 3.01-13.786 6.123-28.041 6.123-42.141s-3.113-28.355-6.124-42.141c-4.392-20.11-8.541-39.105-2.346-54.041 6.543-15.779 23.273-26.389 40.985-37.621 11.577-7.34 23.544-14.929 33.015-24.399s17.062-21.44 24.403-33.017c11.232-17.712 21.842-34.442 37.621-40.985 14.937-6.194 33.931-2.045 54.041 2.346 13.786 3.01 28.041 6.123 42.141 6.123s28.355-3.113 42.141-6.124c20.11-4.392 39.107-8.542 54.041-2.346 15.779 6.543 26.389 23.273 37.621 40.985 7.34 11.575 14.932 23.544 24.402 33.015s21.44 17.062 33.017 24.403c17.712 11.232 34.442 21.842 40.985 37.621 6.194 14.936 2.046 33.931-2.346 54.041-3.01 13.786-6.123 28.041-6.123 42.141s3.113 28.355 6.124 42.141c4.392 20.11 8.541 39.105 2.346 54.041-6.543 15.779-23.273 26.389-40.985 37.621-11.575 7.34-23.544 14.932-33.015 24.402s-17.062 21.44-24.403 33.017c-11.232 17.712-21.842 34.442-37.621 40.985-14.937 6.194-33.931 2.045-54.041-2.346-13.786-3.01-28.041-6.123-42.141-6.123s-28.355 3.113-42.141 6.124c-20.112 4.392-39.105 8.541-54.041 2.346-15.78-6.543-26.389-23.273-37.621-40.985l-9.123-14.029a10.33 10.33 0 0 0-14.352-2.7 10.33 10.33 0 0 0-2.7 14.352c2.941 4.304 5.754 8.74 8.733 13.437 12.458 19.645 25.339 39.957 47.151 49.002 8.269 3.428 16.876 4.714 25.644 4.714 13.416 0 27.206-3.011 40.715-5.962 12.715-2.777 25.864-5.648 37.735-5.648s25.02 2.871 37.735 5.648c22.337 4.878 45.437 9.92 66.357 1.247 21.813-9.044 34.695-29.357 47.153-49.002 7.051-11.117 13.709-21.618 21.566-29.474s18.356-14.515 29.473-21.564c19.643-12.458 39.956-25.339 49.001-47.151 8.677-20.921 3.632-44.019-1.246-66.359-2.777-12.714-5.648-25.863-5.648-37.734zm-132.297-33.525c-1.196-3.679-4.349-6.383-8.169-7.001l-64.752-10.492-29.988-58.341c-1.768-3.441-5.315-5.605-9.184-5.605a10.33 10.33 0 0 0-9.184 5.605l-29.988 58.341-64.752 10.492c-3.819.618-6.972 3.321-8.169 7.001a10.33 10.33 0 0 0 2.493 10.467l46.218 46.548-10.032 64.825c-.593 3.823 1.004 7.658 4.135 9.933a10.33 10.33 0 0 0 10.726.863l58.552-29.573 58.552 29.573c1.471.742 3.065 1.108 4.654 1.108a10.33 10.33 0 0 0 6.072-1.972c3.131-2.273 4.727-6.108 4.135-9.933l-10.032-64.825 46.218-46.548c2.729-2.744 3.692-6.785 2.495-10.466zm-67.044 46.163c-2.31 2.327-3.377 5.613-2.876 8.854l7.757 50.126-45.275-22.867c-1.464-.738-3.059-1.108-4.655-1.108a10.34 10.34 0 0 0-4.658 1.108l-45.275 22.867 7.757-50.126a10.32 10.32 0 0 0-2.876-8.854l-35.739-35.994 50.069-8.112a10.33 10.33 0 0 0 7.533-5.473l23.188-45.111 23.188 45.111c1.499 2.918 4.296 4.948 7.533 5.473l50.069 8.112-35.74 35.994z"/></symbol>

<symbol id="thumb-up" viewBox="0 0 57.159 57.159" xmlns="http://www.w3.org/2000/svg"><path d="M10.486 26.603H2.42c-1.334 0-2.42 1.086-2.42 2.42v17.053c0 1.334 1.086 2.42 2.42 2.42h8.067c1.334 0 2.42-1.086 2.419-2.42V29.023c0-1.334-1.086-2.42-2.42-2.42zm.346 19.474c0 .191-.157.346-.346.346H2.42c-.191 0-.346-.156-.346-.346V29.024c0-.191.156-.346.346-.346v-.001h8.066c.19 0 .346.156.346.346v17.054zm4.896-18.437v19.818a1.04 1.04 0 0 1-1.037 1.038 1.04 1.04 0 0 1-1.037-1.037V27.64a1.04 1.04 0 0 1 1.037-1.037 1.04 1.04 0 0 1 1.037 1.037zm41.422 4.73c-.007-1.283-.341-2.331-.995-3.112l-.062-.079.065-.08c.659-.772.992-1.805.992-3.07 0-1.537-.705-2.796-1.985-3.543-.859-.5-2.214-.605-3.199-.605H39.868c-.916 0-1.406-.109-1.647-.193-.034-.326.103-1.013.158-1.29l.026-.13c.907-4.599 1.61-10.545-.198-12.743a2.55 2.55 0 0 0-2.027-.968c-3.223 0-4.039 1.954-5.17 4.657-.727 1.735-1.63 3.896-3.418 6.644-3.245 4.986-7.248 7.355-9.346 8.322-1.004.465-1.598 1.568-1.552 2.842l.001 15.652c.042 1.21 1.147 2.466 2.145 2.936 5.613 2.637 15.133 2.992 23.705 2.992l2.911-.005c2.401 0 4.21-.613 5.373-1.825.979-1.019 1.462-2.431 1.397-4.082-.015-.341.205-.691.546-.874 1.577-.845 2.546-2.318 2.732-4.146.092-.905-.074-1.878-.492-2.896l-.018-.047c.039-.032.111-.086.238-.154 2.031-1.087 1.944-3.777 1.918-4.203zm-2.901 2.377c-1.716.918-1.383 2.278-1.159 2.818.283.687.404 1.343.347 1.897-.117 1.153-.671 2.004-1.647 2.528-1.042.557-1.686 1.651-1.64 2.784.031.748-.086 1.8-.819 2.562-.758.789-2.062 1.188-3.878 1.188l-2.91.005c-5.477 0-16.872 0-22.822-2.796-.432-.203-.946-.859-.955-1.096l-.001-15.653c-.013-.371.103-.806.349-.919 2.3-1.062 6.685-3.653 10.213-9.075 1.893-2.907 2.875-5.258 3.594-6.976 1.145-2.737 1.483-3.384 3.257-3.384.157 0 .282.035.426.212.95 1.155.858 5.484-.235 11.026l-.024.123c-.196.976-.561 2.794.78 3.482.634.324 1.531.483 2.742.483h12.095c1.104 0 1.878.161 2.153.322.644.376.958.949.958 1.752 0 .758-.168 1.339-.497 1.726-.821.962-.826 1.862-.017 2.832.336.402.514 1.032.514 1.821l.002.088c.002.016.112 1.748-.826 2.25zm-11.904-1.526c.028.09.042.266-.206.448l-2.967 2.66-.02.019c-.116.085-.182.292-.137.432l.844 3.912c.055.172.043.314-.033.415-.108.155-.327.175-.556.017l-3.437-1.865-.028-.017c-.118-.082-.344-.082-.455 0l-3.469 1.882c-.104.075-.203.108-.297.108-.107 0-.196-.045-.255-.125-.073-.101-.085-.243-.033-.415l.84-3.891.002-.021c.048-.14-.019-.347-.139-.432l-2.985-2.679c-.243-.181-.231-.358-.203-.448s.127-.24.434-.24l3.938-.323h.021c.147 0 .324-.128.368-.267l1.644-3.754c.096-.291.269-.331.361-.331s.266.04.365.331l1.632 3.732.01.021c.044.139.221.267.369.268l3.96.323c.307 0 .399.15.432.24z"/></symbol>
<symbol id="map-marker" viewBox="0 0 16 16" xmlns="http://www.w3.org/2000/svg"><path d="M8 16s6-5.686 6-10A6 6 0 0 0 2 6c0 4.314 6 10 6 10zm0-7a3 3 0 1 1 0-6 3 3 0 0 1 0 6z"/></symbol>


<symbol id="handshak" viewBox="0 0 207.586 207.586" xmlns="http://www.w3.org/2000/svg"><path d="M204.539 80.265l-63.92-63.92c-4.051-4.055-10.654-4.048-14.716.014l-9.838 9.837c-1.973 1.975-3.061 4.591-3.061 7.37a10.31 10.31 0 0 0 3.047 7.346l2.879 2.879c-3.473 1.371-8.345 3.524-13.851 6.588l-13.208-9.893c3.663-4.075 3.565-10.361-.363-14.289l-9.838-9.84c-4.066-4.055-10.667-4.059-14.715-.011l-63.92 63.92c-4.053 4.051-4.046 10.654.015 14.716l9.838 9.84a10.41 10.41 0 0 0 7.372 3.047c2.479 0 4.938-.916 6.901-2.676l10.514 14.138-10.052 10.05c-.651.651-1.018 1.534-1.018 2.457s.367 1.805 1.018 2.457l12.286 12.286-.001.001 4.913 4.913.001-.001 7.371 7.371 4.913 4.913 9.829 9.829-.001.001 4.915 4.913 14.74 14.74c.679.679 1.568 1.018 2.457 1.018s1.778-.339 2.457-1.018l10.742-10.74 11.809 8.653c.607.434 1.315.648 2.017.648a3.47 3.47 0 0 0 2.458-1.018l46.676-46.676 12.29-12.29c1.201-1.201 1.357-3.094.371-4.476l-9.618-13.095 7.033-14.126 4.69 4.69c2.024 2.026 4.684 3.037 7.346 3.037s5.337-1.018 7.37-3.05l9.838-9.837c1.973-1.975 3.061-4.591 3.061-7.37.002-2.772-1.08-5.381-3.047-7.346zM22.687 99.919c-1.36 1.37-3.51 1.36-4.887-.014l-9.837-9.837c-1.352-1.354-1.359-3.546-.015-4.889l63.92-63.92c.681-.682 1.556-1.021 2.431-1.021.882 0 1.768.346 2.458 1.035l9.837 9.837c1.352 1.354 1.359 3.546.015 4.889l-63.922 63.92zm12.306 31.919l6.949-6.947 8.709 10.946-5.829 5.83-9.829-9.829zm22.112 22.113l-7.371-7.372 5.381-5.382c2.408 2.827 4.747 5.459 6.949 7.795l-4.959 4.959zm14.742 14.74l-9.827-9.827 4.959-4.959c3.055 2.881 6.64 6.006 10.461 9.191l-5.593 5.595zm17.198 17.199l-12.284-12.284 6.08-6.083c4.671 3.762 9.426 7.45 13.799 10.773l-7.595 7.594zm81.444-56.875l-7.738 7.737-31.938-31.941c-1.357-1.357-3.556-1.357-4.913 0s-1.357 3.556 0 4.913l31.938 31.941-9.827 9.827-31.939-31.939c-1.357-1.357-3.556-1.357-4.913 0s-1.357 3.556 0 4.913l31.939 31.939-9.827 9.827-31.94-31.94c-1.357-1.357-3.556-1.357-4.913 0s-1.357 3.556 0 4.913l31.94 31.94-12.65 12.65c-8.02-5.823-34.171-25.072-46.316-37.216-6.94-6.942-16.197-18.454-23.949-28.547-.164-.332-.345-.659-.621-.935-.057-.057-.132-.075-.191-.127l-12.458-16.706 54.772-54.775 11.714 8.738c-5.524 3.558-11.313 7.95-16.7 13.338-8.317 8.313-13.805 14.394-16.779 18.584-1.462 2.06-4.885 6.885-1.615 10.149.763.763 2.185 2.185 15.744 3.461a3.54 3.54 0 0 0 .326.014c.509 0 1.015-.112 1.478-.329 7.227-3.393 20.605-8.537 25.625-7.984 7.971.895 19.772-5.713 26.161-9.317.125.187.206.394.371.559 12.141 12.141 31.395 38.295 37.219 46.313zm-6.923-20.931c-8.019-10.483-17.874-22.787-25.383-30.296-.434-.434-.964-.678-1.515-.835-.068-.239-.093-.485-.216-.713-.909-1.69-3.017-2.324-4.706-1.415l-2.173 1.211c-4.864 2.752-16.255 9.165-22.043 8.52-7.928-.913-24.186 6.219-28.497 8.191-3.252-.333-6.847-.818-9.099-1.262 1.464-2.368 5.561-7.631 16.939-19.008 14.104-14.104 31.676-21.212 37.457-23.289l45.771 45.771-6.535 13.125zm36.045-18.016l-9.837 9.837c-1.354 1.354-3.546 1.354-4.889.014l-56.877-56.877c-.066-.083-.146-.142-.218-.218l-6.825-6.825c-.653-.651-1.011-1.517-1.011-2.433a3.46 3.46 0 0 1 1.026-2.457l9.837-9.837c.679-.679 1.569-1.018 2.457-1.018.882 0 1.763.336 2.433 1.004l63.92 63.92c.653.651 1.011 1.517 1.011 2.433a3.46 3.46 0 0 1-1.027 2.457z"/></symbol>

<symbol id="newsletter" viewBox="0 0 32 32" xmlns="http://www.w3.org/2000/svg"><style type="text/css">.st0{fill:none;stroke:#000000;stroke-width:2;stroke-linecap:round;stroke-linejoin:round;stroke-miterlimit:10}.st1{fill:none;stroke:#000000;stroke-width:2;stroke-linejoin:round;stroke-miterlimit:10}</style><polyline class="st0" points="3,10 16,18 29,10 "/><path class="st0" d="M7,12.5V3c0-1.1,0.9-2,2-2h14c1.1,0,2,0.9,2,2v9.5"/><path class="st0" d="M25,5c2.2,0,4,1.8,4,4v14c0,2.2-1.8,4-4,4H7c-2.2,0-4-1.8-4-4V9c0-2.2,1.8-4,4-4"/><line class="st0" x1="11" y1="5" x2="18" y2="5"/><line class="st0" x1="11" y1="9" x2="14" y2="9"/></symbol>

<symbol id="facebook" viewBox="0 0 1920 1920" xmlns="http://www.w3.org/2000/svg"><path d="M1168.737 487.897c44.672-41.401 113.824-36.889 118.9-36.663l289.354-.113 6.317-417.504L1539.65 22.9C1511.675 16.02 1426.053 0 1237.324 0 901.268 0 675.425 235.206 675.425 585.137v93.97H337v451.234h338.425V1920h451.234v-789.66h356.7l62.045-451.233H1126.66v-69.152c0-54.937 14.214-96.112 42.078-122.058" fill-rule="evenodd"/></symbol>

</svg>